<?xml version="1.0" encoding="utf-8" ?>
<svg baseProfile="full" height="200mm" version="1.1" viewBox="0,0,200,200" width="200mm" xmlns="http://www.w3.org/2000/svg" xmlns:ev="http://www.w3.org/2001/xml-events" xmlns:xlink="http://www.w3.org/1999/xlink"><defs /><rect fill="#1a1a1a" height="200" width="200" x="0" y="0" /><text alignment-baseline="middle" fill="#e1ed5e" style="dominant-baseline: central; font-size:9.0px; font-family:Arial;" text-anchor="middle" x="100.0" y="100.0">2024</text><line stroke="#e1ed5e" stroke-width="0.3" x1="100.0" x2="100.0" y1="15.0" y2="10.0" /><path d="M 100.0 14.0 a86.0,86.0 0 0,1 42.35913384403234,11.155469271406648" fill="none" id="id25" stroke="none" /><text fill="#e1ed5e" style="font-size:6.75px; font-family:Arial;" text-anchor="middle"><textPath startOffset="22.145653131862478" xlink:href="#id25">January</textPath></text><path d="M 100.0 79.0 l 0.0 -1.8246619582986696 a22.82466195829867,22.82466195829867 0 0,0 0.39181567371587983,0.003363266321540314 l -0.031322748867025074 1.8243930901715641" fill="#ff0000" stroke="none" /><path d="M 101.80034050326958 79.07731436759882 l 1.0093457955845295 -11.730128126900647 a32.77347377831071,32.77347377831071 0 0,0 0.5601149546869306,0.053043468558175016 l -1.210560313656473 11.711072902837289" fill="#ff8d0d" stroke="none" /><path d="M 104.29559338865022 79.4440306129975 l 2.5844647446961666 -12.367599390140427 a33.63475257737876,33.63475257737876 0 0,0 0.564163045974726,0.12295671006659582 l -2.7963902072900266 12.321411221940112" fill="#ff980e" stroke="none" /><line stroke="#e1ed5e" stroke-width="0.3" x1="143.13028292997686" x2="145.6673583964461" y1="26.7553504044142" y2="22.446841604673864" /><path d="M 143.63769802327073 25.89364864446614 a86.0,86.0 0 0,1 29.32050498858742,28.57503671076993" fill="none" id="id26" stroke="none" /><text fill="#e1ed5e" style="font-size:6.75px; font-family:Arial;" text-anchor="middle"><textPath startOffset="20.669276256404974" xlink:href="#id26">February</textPath></text><path d="M 112.16784306229584 82.88440491214696 l 6.022920539462671 -8.471992009757738 a31.394720796542842,31.394720796542842 0 0,0 0.43656450698084853,0.3160390361593736 l -6.167466056817488 8.36735220222529" fill="#ff7a0b" stroke="none" /><path d="M 114.13192950727249 84.46653392183569 l 5.954929726240337 -6.545510919284189 a29.84900566385452,29.84900566385452 0 0,0 0.37605515497794034,0.3480710372701048 l -6.066414652532242 6.44232213588171" fill="#ff6509" stroke="none" /><line stroke="#e1ed5e" stroke-width="0.3" x1="172.87174338648825" x2="177.1583165268699" y1="56.24261187166439" y2="53.66864786411523" /><path d="M 173.72905801456457 55.72781907015455 a86.0,86.0 0 0,1 12.242430191666344,42.057860355516425" fill="none" id="id27" stroke="none" /><text fill="#e1ed5e" style="font-size:6.75px; font-family:Arial;" text-anchor="middle"><textPath startOffset="22.145653131862474" xlink:href="#id27">March</textPath></text><path d="M 118.18653347947321 89.5 l 11.15357796339455 -6.439521239593324 a33.879042479186644,33.879042479186644 0 0,0 0.2864660747298587,0.5061581053985333 l -11.262477403145786 6.247106364095672" fill="#ff9c0e" stroke="none" /><path d="M 118.36410011445183 89.81374322990088 l 6.009910736491794 -3.3335961765479785 a27.87254614599965,27.87254614599965 0 0,0 0.2284946874807065,0.42040448907149824 l -6.066250773587842 3.229936854001877" fill="#ff4906" stroke="none" /><path d="M 118.53625476483649 90.13048839642627 l 6.192949331811807 -3.297396699931466 a28.01608483579747,28.01608483579747 0 0,0 0.2223835848114692,0.42644984625075044 l -6.248640985598221 3.1906006105762175" fill="#ff4b07" stroke="none" /><path d="M 119.16976305983485 91.42560881287824 l 5.969243707405587 -2.669966784607792 a27.539158437391624,27.539158437391624 0 0,0 0.1893200664821822,0.43320136182490016 l -6.01419765590474 2.5671033530070426" fill="#ff4406" stroke="none" /><path d="M 119.31412917781788 91.75594674310238 l 15.11252551315171 -6.4506384952491365 a37.43165129809087,37.43165129809087 0 0,0 0.2471810776841716,0.5931446033302302 l -15.221032435372363 6.190261382477629" fill="#ffca12" stroke="none" /><path d="M 119.83427380445688 93.10060997987247 l 7.028602273169575 -2.4449127231497187 a28.441696590040735,28.441696590040735 0 0,0 0.1564490757792981,0.462513893362517 l -7.069536770521238 2.3238971553130403" fill="#ff5107" stroke="none" /><path d="M 119.94978838288452 93.4421083053983 l 7.990747344748659 -2.626717368628594 a29.411402217363218,29.411402217363218 0 0,0 0.1535489257852393,0.4809898230476349 l -8.034660986311154 2.4891585118895723" fill="#ff5f08" stroke="none" /><path d="M 120.05942366710727 93.78553927170692 l 8.567968077556495 -2.6543784120055918 a29.969715811114,29.969715811114 0 0,0 0.14802710535115327,0.4927340905071526 l -8.612271502911275 2.506906717907716" fill="#ff6609" stroke="none" /><path d="M 120.26092885502905 94.47779374421319 l 18.896594536654934 -5.150350870388718 a40.58589796692638,40.58589796692638 0 0,0 0.1774386840166549,0.6737635847050921 l -18.98222270147632 4.825206781310827" fill="#fff216" stroke="none" /><path d="M 120.43855184770803 95.1765574152323 l 7.2003453321797934 -1.6992618928705576 a28.398139217614478,28.398139217614478 0 0,0 0.10789824102566213,0.47541955852061396 l -7.228454434763122 1.5754080004109174" fill="#ff5107" stroke="none" /><path d="M 120.51834098615036 95.52812308129327 l 9.162260010321843 -1.9968719250257074 a30.377340026985195,30.377340026985195 0 0,0 0.10667117107887997,0.5104601690110697 l -9.19518889222509 1.8392953047292333" fill="#ff6c0a" stroke="none" /><path d="M 120.65975698304385 96.23510406497455 l 9.309114380723218 -1.6964307430836072 a30.462425049608953,30.462425049608953 0 0,0 0.08933495268139525,0.5152602672264457 l -9.336864150896846 1.5363774429365686" fill="#ff6d0a" stroke="none" /><path d="M 120.82617615685814 97.30363454192243 l 9.66298365769699 -1.2510666941613402 a30.743634898853657,30.743634898853657 0 0,0 0.06327027433919293,0.5239686345075121 l -9.683036018295848 1.0850043827304152" fill="#ff710a" stroke="none" /><path d="M 120.86939407059847 97.66154086499901 l 7.484792563077233 -0.838686618476099 a28.53163428190105,28.53163428190105 0 0,0 0.050361877210388074,0.48720547739842845 l -7.498086832769287 0.7100766187947393" fill="#ff5207" stroke="none" /><path d="M 120.96210409425399 98.7389718711861 l 9.599213548883984 -0.5774648501508219 a30.61656728829147,30.61656728829147 0 0,0 0.02705689643650384,0.5248965625602015 l -9.60771203477706 0.41259649421388983" fill="#ff6f0a" stroke="none" /><line stroke="#e1ed5e" stroke-width="0.3" x1="184.99686870605535" x2="189.99668451229388" y1="99.2704041080226" y2="99.22748670261217" /><path d="M 185.99683186730306 99.26182062694052 a86.0,86.0 0 0,1 -10.086455211305974,41.156179273409016" fill="none" id="id28" stroke="none" /><text fill="#e1ed5e" style="font-size:6.75px; font-family:Arial;" text-anchor="middle"><textPath startOffset="21.40746469413373" xlink:href="#id28">April</textPath></text><path d="M 120.99922638620191 100.18025310272382 l 9.345243425892006 0.08021767527270997 a30.3455877056825,30.3455877056825 0 0,0 -0.008942654533105934,0.5208647940592523 l -9.342489339760231 -0.24062938530103337" fill="#ff6c09" stroke="none" /><path d="M 120.99303781780057 100.54070618675476 l 7.113450399604497 0.18321724914808948 a28.115809521622875,28.115809521622875 0 0,0 -0.016568663960340294,0.48237857320711663 l -7.1092570486473114 -0.3053020869193168" fill="#ff4d07" stroke="none" /><path d="M 120.96210409425399 101.26102812881392 l 25.064137044384204 1.5077962448473436 a46.109448725442945,46.109448725442945 0 0,0 -0.05431262449190242,0.7896936401296991 l -25.03456045872724 -1.9378333091313862" fill="#c9ff1d" stroke="none" /><path d="M 120.82617615685814 102.69636545807757 l 6.9544473127976 0.900392437527368 a28.01249199415117,28.01249199415117 0 0,0 -0.06583667070783975,0.47636135274109037 l -6.93796612553455 -1.0196420984685433" fill="#ff4b07" stroke="none" /><path d="M 120.77682067341334 103.0534771498775 l 9.978307010877085 1.4664675087254317 a31.085491448485104,31.085491448485104 0 0,0 -0.08212269912907612,0.5272866392580583 l -9.95166281960974 -1.6375423299149408" fill="#ff760a" stroke="none" /><path d="M 120.51834098615036 104.47187691870673 l 18.490912394015268 4.030008293381961 a39.92497841499099,39.92497841499099 0 0,0 -0.15169426809814235,0.6683929347112704 l -18.41900726435946 -4.346835562032249" fill="#ffea16" stroke="none" /><path d="M 120.26092885502905 105.52220625578681 l 10.500455270964437 2.861945777551875 a31.883487241283092,31.883487241283092 0 0,0 -0.14845787906540758,0.5268246395745124 l -10.44977889982445 -3.0417783410293957" fill="#ff810b" stroke="none" /><path d="M 119.94978838288452 106.5578916946017 l 11.993390611809474 3.9424657131088376 a33.62475561214863,33.62475561214863 0 0,0 -0.1849594985366478,0.5467998922744921 l -11.923945691700462 -4.14776727985749" fill="#ff980e" stroke="none" /><path d="M 119.83427380445688 106.89939002012753 l 7.004727278654421 2.4366077607138656 a28.416418382743547,28.416418382743547 0 0,0 -0.16421960489952012,0.459351462180763 l -6.961867503710958 -2.5564941792755502" fill="#ff5107" stroke="none" /><path d="M 119.4528033332814 107.91128576633889 l 8.755308326511196 3.560707675737976 a30.45166985481061,30.45166985481061 0 0,0 -0.20108855236045828,0.4825393219480007 l -8.692893929614252 -3.7104795071272547" fill="#ff6d0a" stroke="none" /><path d="M 118.70294669586154 109.54985784667822 l 5.78570250360478 2.9542209231030885 a27.4962893041119,27.4962893041119 0 0,0 -0.21825759810123152,0.4185377227021354 l -5.7341368365286 -3.053104888909727" fill="#ff4406" stroke="none" /><line stroke="#e1ed5e" stroke-width="0.3" x1="174.33088141563837" x2="178.70328620479359" y1="141.23008692659167" y2="143.65538615756765" /><path d="M 175.20536237346943 141.71514677278685 a86.0,86.0 0 0,1 -30.301960400862466,31.631185727798858" fill="none" id="id29" stroke="none" /><text fill="#e1ed5e" style="font-size:6.75px; font-family:Arial;" text-anchor="middle"><textPath startOffset="22.145653131862474" xlink:href="#id29">May</textPath></text><path d="M 118.18653347947321 110.5 l 13.705092436345604 7.912638807392835 a36.825277614785676,36.825277614785676 0 0,0 -0.32077673369114984,0.5447490222999465 l -13.56724199252469 -8.146738997986331" fill="#ffc212" stroke="none" /><path d="M 118.00360718960297 110.81064883170644 l 9.057515467779659 5.438777794844486 a31.564984162352598,31.564984162352598 0 0,0 -0.2829305343244068,0.4621457647637911 l -8.962816968999848 -5.5934606757328345" fill="#ff7c0b" stroke="none" /><path d="M 116.57777611688842 112.89097897827486 l 9.311134919719912 7.2403948314702795 a32.79493750762627,32.79493750762627 0 0,0 -0.3493965916889597,0.44145117971286973 l -9.185471897389391 -7.399165955097832" fill="#ff8d0d" stroke="none" /><path d="M 116.35404254752997 113.17365903436017 l 9.18817902951288 7.401346629108686 a32.79841369856977,32.79841369856977 0 0,0 -0.3569610368921662,0.43543442395572124 l -9.059771173382085 -7.5579833347629" fill="#ff8d0d" stroke="none" /><path d="M 115.6541949942343 113.99807769240083 l 9.011260811775939 8.057924984081653 a33.088547326578826,33.088547326578826 0 0,0 -0.38225512653477584,0.4201653453038204 l -8.871607984399283 -8.211427904943147" fill="#ff910d" stroke="none" /><path d="M 114.91283532996324 114.78537596483092 l 4.1469074009269375 4.111463960904321 a26.83960417268822,26.83960417268822 0 0,0 -0.3271978823200807,0.32440133602754717 l -4.075717598476892 -4.18204530716053" fill="#ff3a05" stroke="none" /><path d="M 114.39649973595853 115.28858382429668 l 16.018864541274915 17.011479026226606 a44.36652391459762,44.36652391459762 0 0,0 -0.5589553037185444,0.5173606844037308 l -15.724479466242405 -17.283957456762717" fill="#deff1b" stroke="none" /><path d="M 113.59037401385872 116.0094264158162 l 7.569783913784703 8.91718641648747 a32.69691592206178,32.69691592206178 0 0,0 -0.4310164533798708,0.35956925504086407 l -7.415593126242937 -9.045817855440204" fill="#ff8c0c" stroke="none" /><path d="M 112.45986205192187 116.90419585922612 l 6.727598643781257 9.127279633019764 a32.338774934319176,32.338774934319176 0 0,0 -0.44969220866969234,0.32554247980260687 l -6.5699254247375976 -9.24142288419545" fill="#ff870c" stroke="none" /><path d="M 111.5731344415666 117.5232005979908 l 7.749120459998729 11.733156040324305 a35.06114570617095,35.06114570617095 0 0,0 -0.5050714440784364,0.32738120795157377 l -7.546563383663283 -11.864451089979774" fill="#ffab0f" stroke="none" /><path d="M 110.96478420261333 117.91015095944535 l 6.154483021609461 10.052885488443753 a32.7872035660305,32.7872035660305 0 0,0 -0.48254526792110625,0.2897545687349479 l -5.981004997130918 -10.157054057714623" fill="#ff8d0d" stroke="none" /><line stroke="#e1ed5e" stroke-width="0.3" x1="143.1302829299769" x2="145.66735839644613" y1="173.24464959558577" y2="177.55315839532614" /><path d="M 143.63769802327073 174.10635135553383 a86.0,86.0 0 0,1 -40.68552437913181,11.842963189579606" fill="none" id="id30" stroke="none" /><text fill="#e1ed5e" style="font-size:6.75px; font-family:Arial;" text-anchor="middle"><textPath startOffset="21.407464694133747" xlink:href="#id30">June</textPath></text><path d="M 110.65571695917076 118.09573695890943 l 9.905128365398053 16.82107343234315 a40.520760214481754,40.520760214481754 0 0,0 -0.602423168903995,0.34780917873279027 l -9.614912728633659 -16.988629508352115" fill="#fff116" stroke="none" /><path d="M 110.34350942703117 118.27599006163325 l 3.92304931520966 6.931652240650382 a28.964805001685882,28.964805001685882 0 0,0 -0.43482491027175707,0.24119004789010987 l -3.8034802167818085 -6.997975203973636" fill="#ff5808" stroke="none" /><path d="M 109.71004243097381 118.62028667847754 l 5.445892636909738 10.443217199134283 a32.77788317487662,32.77788317487662 0 0,0 -0.5011469532050125,0.2558892051198929 l -5.2658184619911435 -10.535164355927012" fill="#ff8d0d" stroke="none" /><path d="M 109.06512990194946 118.94263497670748 l 1.5720913484145917 3.2850662798172774 a24.641858271618013,24.641858271618013 0 0,0 -0.38313546842200286,0.17932674486540395 l -1.5154671661210826 -3.311569256253215" fill="#ff1b02" stroke="none" /><path d="M 108.07796709384702 119.3841803445677 l 10.925306161656302 26.216757569917988 a49.402124783293544,49.402124783293544 0 0,0 -0.7856009132901922,0.3194970522681562 l -10.473650787175668 -26.400441878765434" fill="#a3ff21" stroke="none" /><path d="M 106.72888874123015 119.89276391827305 l 2.809976953211813 8.307197561987293 a29.76957820031666,29.76957820031666 0 0,0 -0.485495411591721,0.15959198495438973 l -2.6669588039723577 -8.354210468343702" fill="#ff6409" stroke="none" /><path d="M 106.0420521117495 120.11202640906438 l 7.389972551311828 24.59881516500339 a46.68488664236506,46.68488664236506 0 0,0 -0.7695002897311587,0.2239903195233531 l -6.966612249199063 -24.722049178829263" fill="#c3ff1e" stroke="none" /><path d="M 104.9986988182912 120.39639698878246 l 1.80797633150979 7.377160405995878 a28.59547721154457,28.59547721154457 0 0,0 -0.47777302390452425,0.11275313273297041 l -1.6810711538653866 -7.407109682375073" fill="#ff5307" stroke="none" /><path d="M 102.875027216393 120.80226474461374 l 1.1175218816205028 8.085831642503289 a29.162691253919142,29.162691253919142 0 0,0 -0.4964908998394289,0.06428068707831558 l -0.9785531598902987 -8.103823925781999" fill="#ff5b08" stroke="none" /><path d="M 101.08105385017728 120.97215588758144 l 2.0303118399342246 39.38750729255548 a60.439800923540275,60.439800923540275 0 0,0 -1.036612348908257,0.0445165945305362 l -1.3538737304251378 -39.41655645551185" fill="#2fff2f" stroke="none" /><line stroke="#e1ed5e" stroke-width="0.3" x1="101.45913802915013" x2="101.54496967792366" y1="184.9874750549273" y2="189.98673829345242" /><path d="M 101.47630435890484 185.9873277026323 a86.0,86.0 0 0,1 -42.54439059252881,-10.42667462771756" fill="none" id="id31" stroke="none" /><text fill="#e1ed5e" style="font-size:6.75px; font-family:Arial;" text-anchor="middle"><textPath startOffset="22.145653131862474" xlink:href="#id31">July</textPath></text><path d="M 99.27912038922189 120.98762331915562 l -0.40159513076786096 11.692004053582943 a32.69889898400941,32.69889898400941 0 0,0 -0.5608238605121713,-0.024084189646948025 l 0.6022447518808709 -11.683387295510167" fill="#ff8c0c" stroke="none" /><path d="M 97.84075906011543 120.88869738790638 l -0.6020159511975467 5.823958222990356 a26.8549904003878,26.8549904003878 0 0,0 -0.4581513773006726,-0.05133681743886507 l 0.7019032300990186 -5.81276564504452" fill="#ff3b05" stroke="none" /><path d="M 96.05791012581884 120.62667999033965 l -11.826269622543512 61.88003997101897 a84.0,84.0 0 0,0 -1.4140140578761677,-0.2828424133485541 l 12.886780165950636 -61.667908161007546" fill="#4dd2ff" stroke="none" /><path d="M 92.93061703081489 119.77432235084164 l -1.7336781586554706 4.8494063642188845 a26.149988547863543,26.149988547863543 0 0,0 -0.421401895653218,-0.15474461310831947 l 1.8166692059628073 -4.818930902101846" fill="#ff3104" stroke="none" /><line stroke="#e1ed5e" stroke-width="0.3" x1="58.13341422392154" x2="55.67067388415222" y1="173.97424548756322" y2="178.32567169271397" /><path d="M 57.64086615596768 174.84453072859336 a86.0,86.0 0 0,1 -31.369924170532247,-30.572349798747897" fill="none" id="id32" stroke="none" /><text fill="#e1ed5e" style="font-size:6.75px; font-family:Arial;" text-anchor="middle"><textPath startOffset="22.145653131862474" xlink:href="#id32">August</textPath></text><line stroke="#e1ed5e" stroke-width="0.3" x1="26.387840678322732" x2="22.057713659400548" y1="142.50000000000003" y2="145.00000000000006" /><path d="M 25.521815274538298 143.00000000000003 a86.0,86.0 0 0,1 -11.493303480769221,-40.785679425670985" fill="none" id="id33" stroke="none" /><text fill="#e1ed5e" style="font-size:6.75px; font-family:Arial;" text-anchor="middle"><textPath startOffset="21.40746469413373" xlink:href="#id33">September</textPath></text><path d="M 81.81346652052679 110.50000000000001 l -4.13374863384388 2.386620886512015 a25.773241773024026,25.773241773024026 0 0,0 -0.21792703876792008,-0.38505619613737146 l 4.174109037633179 -2.315307920275522" fill="#ff2b04" stroke="none" /><line stroke="#e1ed5e" stroke-width="0.3" x1="15.003131293944662" x2="10.003315487706104" y1="100.72959589197737" y2="100.7725132973878" /><path d="M 14.003168132696942 100.73817937305945 a86.0,86.0 0 0,1 10.791469493833604,-42.45332614584628" fill="none" id="id34" stroke="none" /><text fill="#e1ed5e" style="font-size:6.75px; font-family:Arial;" text-anchor="middle"><textPath startOffset="22.145653131862435" xlink:href="#id34">October</textPath></text><line stroke="#e1ed5e" stroke-width="0.3" x1="26.387840678322718" x2="22.05771365940052" y1="57.49999999999999" y2="54.99999999999999" /><path d="M 25.521815274538284 56.99999999999999 a86.0,86.0 0 0,1 29.574782752854787,-30.34633250058573" fill="none" id="id35" stroke="none" /><text fill="#e1ed5e" style="font-size:6.75px; font-family:Arial;" text-anchor="middle"><textPath startOffset="21.40746469413373" xlink:href="#id35">November</textPath></text><path d="M 83.64595745247003 86.82634096563983 l -3.988432292477177 -3.2127987285114097 a26.121490781169022,26.121490781169022 0 0,0 0.2842928478221422,-0.3467910489725608 l 3.932692625416405 3.2807920591824633" fill="#ff3004" stroke="none" /><path d="M 85.08716467003674 85.21462403516908 l -6.215597930842048 -6.162473481422882 a29.752698843621218,29.752698843621218 0 0,0 0.3627110143765017,-0.35961093886463324 l 6.108894996335569 6.268264430516189" fill="#ff6309" stroke="none" /><path d="M 86.96720088162412 83.53348406188908 l -7.739228875259271 -9.778262863229502 a33.47036840699023,33.47036840699023 0 0,0 0.4535873332392433,-0.3527122538252941 l 7.570231597384783 9.9096761686756" fill="#ff960d" stroke="none" /><path d="M 89.03521579738668 82.08984904055464 l -6.099837142295991 -9.96362555138247 a32.682544555476575,32.682544555476575 0 0,0 0.4810049502119038,-0.2888296522074922 l 5.927899435526653 10.066869204125886" fill="#ff8c0c" stroke="none" /><line stroke="#e1ed5e" stroke-width="0.3" x1="56.869717070023135" x2="54.33264160355391" y1="26.7553504044142" y2="22.446841604673864" /><path d="M 56.362301976729285 25.89364864446614 a86.0,86.0 0 0,1 42.16139366436587,-11.88097634709845" fill="none" id="id36" stroke="none" /><text fill="#e1ed5e" style="font-size:6.75px; font-family:Arial;" text-anchor="middle"><textPath startOffset="22.145653131862474" xlink:href="#id36">December</textPath></text></svg>