<?xml version="1.0" encoding="utf-8" ?>
<svg baseProfile="full" height="200mm" version="1.1" viewBox="0,0,200,200" width="200mm" xmlns="http://www.w3.org/2000/svg" xmlns:ev="http://www.w3.org/2001/xml-events" xmlns:xlink="http://www.w3.org/1999/xlink"><defs /><rect fill="#1a1a1a" height="200" width="200" x="0" y="0" /><text alignment-baseline="middle" fill="#e1ed5e" style="dominant-baseline: central; font-size:9.0px; font-family:Arial;" text-anchor="middle" x="100.0" y="100.0">2023</text><line stroke="#e1ed5e" stroke-width="0.3" x1="100.0" x2="100.0" y1="15.0" y2="10.0" /><path d="M 100.0 14.0 a86.0,86.0 0 0,1 42.46469731375804,11.215312516191453" fill="none" id="id13" stroke="none" /><text fill="#e1ed5e" style="font-size:6.75px; font-family:Arial;" text-anchor="middle"><textPath startOffset="22.20632615414155" xlink:href="#id13">January</textPath></text><path d="M 106.74666289553966 80.11325718540242 l 3.1905391177484312 -9.404565169029528 a30.931031461052086,30.931031461052086 0 0,0 0.5027294128829586,0.17539242080408055 l -3.3519505346946636 9.34825189505324" fill="#ff6309" stroke="none" /><line stroke="#e1ed5e" stroke-width="0.3" x1="143.23703022742887" x2="145.7803849466894" y1="26.81831364943548" y2="22.513508569990506" /><path d="M 143.74570117128098 25.957352633546492 a86.0,86.0 0 0,1 28.547481713284135,27.462654790039103" fill="none" id="id14" stroke="none" /><text fill="#e1ed5e" style="font-size:6.75px; font-family:Arial;" text-anchor="middle"><textPath startOffset="19.985693538727396" xlink:href="#id14">February</textPath></text><path d="M 114.42810811169701 84.74124197986012 l 7.9423664370980935 -8.399621532687982 a32.56005304977178,32.56005304977178 0 0,0 0.4039256861111492,0.3885761900090239 l -8.085775366821661 8.261662255916656" fill="#ff7a0b" stroke="none" /><path d="M 115.68641384162765 86.03803664274999 l 6.9608805648864305 -6.195651878265997 a30.318796082932312,30.318796082932312 0 0,0 0.3436247692505693,0.39282251280099445 l -7.066497197714848 6.074913809262054" fill="#ff5a08" stroke="none" /><path d="M 116.15771136456269 86.58626213691792 l 15.195982218044804 -12.615333783716604 a40.75005119096443,40.75005119096443 0 0,0 0.4434022926237573,0.5435587822794952 l -15.41088300274497 12.351890831829008" fill="#ffe815" stroke="none" /><path d="M 116.60985879189232 87.15038557335679 l 10.376781727614736 -8.02762057521954 a34.119462303091815,34.119462303091815 0 0,0 0.35536891963345524,0.4676238423610951 l -10.513426587472305 7.847811956977411" fill="#ff8f0d" stroke="none" /><path d="M 117.04232023915458 87.72973835380427 l 14.100639784876538 -10.152287781899775 a38.3751831515341,38.3751831515341 0 0,0 0.38135316363999167,0.5393970052974633 l -14.273305568320414 9.908064276270519" fill="#ffc912" stroke="none" /><path d="M 117.2510076193507 88.02491185347247 l 14.318870253402583 -9.939693797992815 a38.43064996297138,38.43064996297138 0 0,0 0.372549528614751,0.546670463044852 l -14.487844247686068 9.691745311677556" fill="#ffc912" stroke="none" /><line stroke="#e1ed5e" stroke-width="0.3" x1="172.23445277983987" x2="176.4835382374775" y1="55.19839476539836" y2="52.563006222186495" /><path d="M 173.08426987136738 54.67131705675599 a86.0,86.0 0 0,1 12.851231095245387,41.99856678651699" fill="none" id="id15" stroke="none" /><text fill="#e1ed5e" style="font-size:6.75px; font-family:Arial;" text-anchor="middle"><textPath startOffset="22.20632615414155" xlink:href="#id15">March</textPath></text><path d="M 118.03404312379186 89.2402003453031 l 5.6055652871264625 -3.344494577659764 a27.527480843957548,27.527480843957548 0 0,0 0.23927977686989715,0.4090067023499297 l -5.662304738466687 3.247508462955939" fill="#ff3104" stroke="none" /><path d="M 119.47837535516314 92.15188598940014 l 15.532281230177631 -6.258176655725158 a37.74564227695049,37.74564227695049 0 0,0 0.23762939870813496,0.6047409002346544 l -15.637704178767466 5.98988675059472" fill="#ffc011" stroke="none" /><path d="M 120.37134235888165 94.90015583598534 l 18.35938026383768 -4.5961614430694 a39.92594895065899,39.92594895065899 0 0,0 0.16116242330842084,0.668122290536867 l -18.435775487406918 4.279453920873127" fill="#ffdd14" stroke="none" /><line stroke="#e1ed5e" stroke-width="0.3" x1="184.98032266829074" x2="189.97916517819016" y1="98.17113171792111" y2="98.06355123074" /><path d="M 185.9800911702706 98.14961562048488 a86.0,86.0 0 0,1 -9.607161424134198,41.387399972396054" fill="none" id="id16" stroke="none" /><text fill="#e1ed5e" style="font-size:6.75px; font-family:Arial;" text-anchor="middle"><textPath startOffset="21.466115282336823" xlink:href="#id16">April</textPath></text><path d="M 120.89721153311464 102.0752229133903 l 9.928405919083126 0.9859523804920918 a30.977241411867453,30.977241411867453 0 0,0 -0.057260248450238124,0.5301587857756153 l -9.909963369131836 -1.1567074881524984" fill="#ff6309" stroke="none" /><path d="M 120.8583938346157 102.4346265915055 l 11.410244919141899 1.331822858269725 a32.48770826756204,32.48770826756204 0 0,0 -0.06961418286042792,0.5548935314031009 l -11.385629227034624 -1.5280341439602207" fill="#ff790b" stroke="none" /><path d="M 120.32669344350535 105.2749913415812 l 13.746467178703238 3.567353221837393 a35.201808649060126,35.201808649060126 0 0,0 -0.15725473264842832,0.5852033603812522 l -13.683024369713033 -3.8034475153941933" fill="#ff9e0e" stroke="none" /><path d="M 120.13307415673323 105.97154293290107 l 15.491799025294288 4.594923868418834 a37.15887255957773,37.15887255957773 0 0,0 -0.1871625657457066,0.6116580940105487 l -15.41040968704245 -4.86090893498144" fill="#ffb811" stroke="none" /><line stroke="#e1ed5e" stroke-width="0.3" x1="174.80103733775053" x2="179.2010983576182" y1="140.37084112569926" y2="142.7455964860345" /><path d="M 175.68104954172406 140.8457921977663 a86.0,86.0 0 0,1 -30.038265399797805,32.042727171017184" fill="none" id="id17" stroke="none" /><text fill="#e1ed5e" style="font-size:6.75px; font-family:Arial;" text-anchor="middle"><textPath startOffset="22.206326154141568" xlink:href="#id17">May</textPath></text><path d="M 118.48025628344425 109.97397251340804 l 21.002852951086986 11.335442259259114 a44.8665473686074,44.8665473686074 0 0,0 -0.372656394645068,0.6764796016477373 l -20.80462014699041 -11.695292379304657" fill="#e3ff1b" stroke="none" /><path d="M 115.80600337817218 113.82643327865902 l 14.902745223967504 13.036300675007775 a40.79992299226677,40.79992299226677 0 0,0 -0.4669476393438385,0.5246206228807403 l -14.676138734975327 -13.290895467629381" fill="#ffe815" stroke="none" /><path d="M 113.75828350139079 115.86535959552629 l 7.330299560000811 8.452932260814709 a32.18862616433627,32.18862616433627 0 0,0 -0.4217239199697261,0.359402273703255 l -7.1837101634540375 -8.577858924740912" fill="#ff740a" stroke="none" /><path d="M 112.92097659922987 116.55440617244103 l 10.362979531865975 13.27709024234493 a37.84257908045095,37.84257908045095 0 0,0 -0.516949941804499,0.3963751714993208 l -10.132900861567983 -13.453504755671622" fill="#ffc212" stroke="none" /><line stroke="#e1ed5e" stroke-width="0.3" x1="143.8653032363475" x2="146.44561519142675" y1="172.8068346515853" y2="177.08958963109032" /><path d="M 144.38136562736335 173.6633856474863 a86.0,86.0 0 0,1 -40.68145358897372,12.25698825130547" fill="none" id="id18" stroke="none" /><text fill="#e1ed5e" style="font-size:6.75px; font-family:Arial;" text-anchor="middle"><textPath startOffset="21.466115282336833" xlink:href="#id18">June</textPath></text><path d="M 109.89434966115114 118.52300852407294 l 7.030503722869561 13.161661437795642 a35.921706149111756,35.921706149111756 0 0,0 -0.5479071083966867,0.28663910342399035 l -6.802905711946378 -13.280729960164349" fill="#ffa80f" stroke="none" /><path d="M 103.7750983002368 120.6578951692458 l 3.0414298041029872 16.643152856135703 a37.91877159388305,37.91877159388305 0 0,0 -0.6430861668418031,0.11180877323002528 l -2.7544946657891343 -16.693040207886735" fill="#ffc312" stroke="none" /><path d="M 103.41894727170886 120.7198165907248 l 2.575309294345241 15.60712465055125 a36.81817175970047,36.81817175970047 0 0,0 -0.6261966914317477,0.09779904481624198 l -2.3062767393049763 -15.649142002714598" fill="#ffb410" stroke="none" /><path d="M 103.06178313531738 120.77559828337769 l 1.5244893462127747 10.344357142369143 a31.45608877427883,31.45608877427883 0 0,0 -0.5363583820551499,0.07433438444413587 l -1.3462023729707941 -10.36906609230588" fill="#ff6a09" stroke="none" /><line stroke="#e1ed5e" stroke-width="0.3" x1="102.19456741930631" x2="102.32365962044197" y1="184.97166512339345" y2="189.96999836594603" /><path d="M 102.22038585953345 185.97133177190398 a86.0,86.0 0 0,1 -42.740103519485714,-10.115201625700543" fill="none" id="id19" stroke="none" /><text fill="#e1ed5e" style="font-size:6.75px; font-family:Arial;" text-anchor="middle"><textPath startOffset="22.20632615414155" xlink:href="#id19">July</textPath></text><path d="M 100.54218724476979 120.99299961872073 l 0.43867404433203644 16.98506214272004 a37.99072602654849,37.99072602654849 0 0,0 -0.6538752283923036,0.011257055041972304 l -0.1462391260470649 -16.990096675041173" fill="#ffc412" stroke="none" /><path d="M 99.45781275523022 120.99299961872073 l -0.0830857756431441 3.217006067965061 a24.218078819332778,24.218078819332778 0 0,0 -0.4166428094744915,-0.014350020784843162 l 0.13844893679227868 -3.215099248754124" fill="#ff0000" stroke="none" /><path d="M 98.01472825383883 120.90594882070398 l -0.325111700480362 3.4235960816936375 a24.438998073331426,24.438998073331426 0 0,0 -0.4184508132756518,-0.04337413773816709 l 0.38399511036160716 -3.4174925754997094" fill="#ff0300" stroke="none" /><path d="M 95.86986931433489 120.58985236759428 l -2.204718199299752 10.991134588861073 a32.21007680119908,32.21007680119908 0 0,0 -0.5426762000133075,-0.11372307405465205 l 2.3935858607424465 -10.95155553407988" fill="#ff750a" stroke="none" /><path d="M 95.16358092515715 120.4354850818985 l -2.1746441011449926 9.188597265804773 a30.442425360033283,30.442425360033283 0 0,0 -0.5088911155756985,-0.1250730549491779 l 2.332488501463902 -9.149802952541567" fill="#ff5c08" stroke="none" /><path d="M 93.08242187328487 119.8279376855182 l -7.366015378800926 21.113298794181883 a43.36134093772406,43.36134093772406 0 0,0 -0.702619816474903,-0.2519344681722121 l 7.728354755905555 -20.983376784969714" fill="#f5ff19" stroke="none" /><line stroke="#e1ed5e" stroke-width="0.3" x1="58.666819895761336" x2="56.23545636021788" y1="174.27360380694188" y2="178.64263932499728" /><path d="M 58.180547188652646 175.14741091055294 a86.0,86.0 0 0,1 -31.652253787137756,-30.449443065178592" fill="none" id="id20" stroke="none" /><text fill="#e1ed5e" style="font-size:6.75px; font-family:Arial;" text-anchor="middle"><textPath startOffset="22.20632615414155" xlink:href="#id20">August</textPath></text><path d="M 88.54995079064634 117.60387380957326 l -6.225830602677528 9.571900896267085 a32.41850486978022,32.41850486978022 0 0,0 -0.4651674164898353,-0.3082875988455162 l 6.389672717907325 -9.463315276330249" fill="#ff780b" stroke="none" /><path d="M 83.95833913139862 113.55231037782056 l -14.541546649115444 12.284984402587673 a40.03621340288617,40.03621340288617 0 0,0 -0.44021532494487753,-0.5302677174192355 l 14.750857973953858 -12.032855428054676" fill="#ffde14" stroke="none" /><line stroke="#e1ed5e" stroke-width="0.3" x1="26.63291911575756" x2="22.317208475507996" y1="142.92168965132927" y2="145.44649492493687" /><path d="M 25.769776987707644 143.4266507060508 a86.0,86.0 0 0,1 -11.730757126820373,-40.83630448921669" fill="none" id="id21" stroke="none" /><text fill="#e1ed5e" style="font-size:6.75px; font-family:Arial;" text-anchor="middle"><textPath startOffset="21.46611528233685" xlink:href="#id21">September</textPath></text><path d="M 81.69416730710424 110.29060199501025 l -24.463107733165156 13.751906808410682 a49.06347414044913,49.06347414044913 0 0,0 -0.4075155868742764,-0.7397591610805833 l 24.69619972949095 -13.328777128932275" fill="#b1ff20" stroke="none" /><path d="M 81.02952815118164 109.00673069616217 l -13.628467755193592 6.4704736840799315 a36.08648942102577,36.08648942102577 0 0,0 -0.2615847466200566,-0.5634302725480593 l 13.737827118653476 -6.234923344253045" fill="#ffaa0f" stroke="none" /><path d="M 80.45479744820244 107.68017299344265 l -56.44160998284328 22.17840043089188 a81.64269769006306,81.64269769006306 0 0,0 -0.5027079924163312,-1.3124119371585843 l 56.81501225485312 -21.203564926900135" fill="#4ae8ff" stroke="none" /><path d="M 79.67330655649465 105.27499134158121 l -39.77383714513391 10.321730248215978 a62.091315829072336,62.091315829072336 0 0,0 -0.2595673814440328,-1.0368426607828438 l 39.945615840873 -9.635559748035742" fill="#31ff3d" stroke="none" /><path d="M 79.4281124754447 104.21870165774334 l -18.306823328732616 3.75420222537933 a39.687798552490655,39.687798552490655 0 0,0 -0.13148013358785823,-0.6704143685423024 l 18.36873339529614 -3.438524129769073" fill="#ffda14" stroke="none" /><path d="M 79.18660465613746 102.79330883721812 l -40.582390283058 5.446451553928137 a61.946235915108566,61.946235915108566 0 0,0 -0.13273748209612274,-1.0580483338796727 l 40.67012927440097 -4.747085465761056" fill="#31ff3c" stroke="none" /><path d="M 79.0095281055655 100.63252640178507 l -18.624082268340374 0.561217670712111 a39.6325362098623,39.6325362098623 0 0,0 -0.014679018203546723,-0.6820762958243202 l 18.630983349228927 -0.24055155909766196" fill="#ffd914" stroke="none" /><line stroke="#e1ed5e" stroke-width="0.3" x1="15.007084014347285" x2="10.007500721073583" y1="101.09737516637583" y2="101.16192664675087" /><path d="M 14.007167355692545 101.11028546245083 a86.0,86.0 0 0,1 10.666146001902534,-42.60595125391555" fill="none" id="id22" stroke="none" /><text fill="#e1ed5e" style="font-size:6.75px; font-family:Arial;" text-anchor="middle"><textPath startOffset="22.20632615414155" xlink:href="#id22">October</textPath></text><path d="M 79.01574976396665 99.18683210126434 l -17.99502838266734 -0.6973315345093845 a39.008534581193004,39.008534581193004 0 0,0 0.03177596546585701,-0.6707404087705268 l 17.98035880896798 1.0069830499029204" fill="#ffd113" stroke="none" /><path d="M 79.26566170972629 96.67025291283419 l -8.446089056230804 -1.3563654667542464 a29.554305794463115,29.554305794463115 0 0,0 0.08498711957093874,-0.5015987905526919 l 8.421490075139642 1.5015500456227664" fill="#ff4f07" stroke="none" /><path d="M 79.54389044137918 95.25157060432595 l -61.3683286758625 -14.245288187022146 a84.0,84.0 0 0,0 0.3390687989567409,-1.4056590733624128 l 61.114027076644945 15.299532492043955" fill="#4dd2ff" stroke="none" /><path d="M 79.91906864156998 93.8553929516997 l -14.305092946667564 -4.377245924392059 a35.959811699864574,35.959811699864574 0 0,0 0.18621106319467887,-0.5903399570888469 l 14.227626399704683 4.62283604790732" fill="#ffa80f" stroke="none" /><path d="M 80.2630227832202 92.82701384747504 l -17.732898967690335 -6.444646378333303 a39.867675340117486,39.867675340117486 0 0,0 0.23995672524274592,-0.6429647246725559 l 17.619337653945962 6.748934240035201" fill="#ffdc14" stroke="none" /><line stroke="#e1ed5e" stroke-width="0.3" x1="26.266209847984243" x2="21.928928074336255" y1="57.711370442889674" y2="55.22380399835377" /><path d="M 25.398753493254645 57.213857153982495 a86.0,86.0 0 0,1 29.58750427330803,-30.492523968695096" fill="none" id="id23" stroke="none" /><text fill="#e1ed5e" style="font-size:6.75px; font-family:Arial;" text-anchor="middle"><textPath startOffset="21.46611528233685" xlink:href="#id23">November</textPath></text><path d="M 82.34701348167596 88.62581576622439 l -14.095398807834771 -9.081956909808746 a37.76789220097543,37.76789220097543 0 0,0 0.3568227089577566,-0.5434654659415965 l 13.936979463519094 9.323240439728009" fill="#ffc111" stroke="none" /><path d="M 83.17141714833178 87.43820079747576 l -12.238236294778341 -9.135306774379403 a36.271812514199226,36.271812514199226 0 0,0 0.37778657564455376,-0.49712284990360167 l 12.079173778909679 9.344614400164032" fill="#ffad10" stroke="none" /><path d="M 83.84228863543731 86.58626213691792 l -14.338681065590754 -11.903623277861316 a39.63582629887853,39.63582629887853 0 0,0 0.4403151238664895,-0.5211942241185823 l 14.131655328237139 12.148676451609015" fill="#ffd914" stroke="none" /><path d="M 85.05521093208273 85.24692304244772 l -12.173432801484873 -12.017271715359604 a38.10576761367492,38.10576761367492 0 0,0 0.46482540332225464,-0.4628292953193622 l 11.964771597995306 12.225036861329075" fill="#ffc512" stroke="none" /><path d="M 86.10567301691215 84.25364557470407 l -6.967021490436333 -7.895682159387574 a31.530013542739294,31.530013542739294 0 0,0 0.4100496298701579,-0.3555909983272486 l 6.8300780619194015 8.014438151134502" fill="#ff6b09" stroke="none" /><path d="M 86.65592168130627 83.78471172551755 l -9.81864422324752 -11.931295870880788 a36.45191235870851,36.45191235870851 0 0,0 0.487928984755126,-0.39453797248555206 l 9.611811839927894 12.098539940630474" fill="#ffaf10" stroke="none" /><path d="M 87.80319425747018 82.90503203632743 l -9.015715483622492 -12.636371408678794 a36.52291879962352,36.52291879962352 0 0,0 0.514918997527764,-0.36073366407350804 l 8.796865346511067 12.789689915516245" fill="#ffb010" stroke="none" /><path d="M 88.39885842347998 82.49532879139004 l -8.696959207618205 -13.122623359081192 a36.742945826092345,36.742945826092345 0 0,0 0.5302059121489322,-0.3448606738986059 l 8.469786269684986 13.270382957139333" fill="#ffb310" stroke="none" /><line stroke="#e1ed5e" stroke-width="0.3" x1="56.762969772571076" x2="54.21961505331055" y1="26.818313649435495" y2="22.513508569990535" /><path d="M 56.25429882871897 25.957352633546506 a86.0,86.0 0 0,1 42.265352541879196,-11.944610805530505" fill="none" id="id24" stroke="none" /><text fill="#e1ed5e" style="font-size:6.75px; font-family:Arial;" text-anchor="middle"><textPath startOffset="22.20632615414155" xlink:href="#id24">December</textPath></text><path d="M 89.63071344664047 81.73862282372117 l -11.352261888845335 -19.99249756377259 a43.990733107719365,43.990733107719365 0 0,0 0.6616958520375894,-0.3682330252560226 l 11.0064419477357 20.1849459865888" fill="#eeff19" stroke="none" /><path d="M 91.23893434514133 80.91482961587045 l -5.99499182556035 -13.059534644490551 a35.3698076576962,35.3698076576962 0 0,0 0.5555045253285248,-0.24923868794665846 l 5.76930518176505 13.160793662953738" fill="#ffa00e" stroke="none" /><path d="M 97.11714578562143 79.19881850522333 l -2.5760737240800293 -18.587612516529862 a39.765273642996874,39.765273642996874 0 0,0 0.6788221389461458,-0.08813059596104919 l 2.2557368566260254 18.629201435655048" fill="#ffdb14" stroke="none" /><path d="M 99.63851952072746 79.00311137660856 l -0.10668498649269374 -6.196884500327903 a27.1978027716883,27.1978027716883 0 0,0 0.46816546576522794,-0.00402964796895374 l 1.5180238652189338e-15 6.197802771688298" fill="#ff2d04" stroke="none" /></svg>