<?xml version="1.0" encoding="utf-8" ?>
<svg baseProfile="full" height="200mm" version="1.1" viewBox="0,0,200,200" width="200mm" xmlns="http://www.w3.org/2000/svg" xmlns:ev="http://www.w3.org/2001/xml-events" xmlns:xlink="http://www.w3.org/1999/xlink"><defs /><rect fill="#1a1a1a" height="200" width="200" x="0" y="0" /><text alignment-baseline="middle" fill="#e1ed5e" style="dominant-baseline: central; font-size:9.0px; font-family:Arial;" text-anchor="middle" x="100.0" y="100.0">2022</text><line stroke="#e1ed5e" stroke-width="0.3" x1="100.0" x2="100.0" y1="15.0" y2="10.0" /><path d="M 100.0 14.0 a86.0,86.0 0 0,1 42.46469731375804,11.215312516191453" fill="none" id="id1" stroke="none" /><text fill="#e1ed5e" style="font-size:6.75px; font-family:Arial;" text-anchor="middle"><textPath startOffset="22.20632615414155" xlink:href="#id1">January</textPath></text><line stroke="#e1ed5e" stroke-width="0.3" x1="143.23703022742887" x2="145.7803849466894" y1="26.81831364943548" y2="22.513508569990506" /><path d="M 143.74570117128098 25.957352633546492 a86.0,86.0 0 0,1 28.547481713284135,27.462654790039103" fill="none" id="id2" stroke="none" /><text fill="#e1ed5e" style="font-size:6.75px; font-family:Arial;" text-anchor="middle"><textPath startOffset="19.985693538727396" xlink:href="#id2">February</textPath></text><line stroke="#e1ed5e" stroke-width="0.3" x1="172.23445277983987" x2="176.4835382374775" y1="55.19839476539836" y2="52.563006222186495" /><path d="M 173.08426987136738 54.67131705675599 a86.0,86.0 0 0,1 12.851231095245387,41.99856678651699" fill="none" id="id3" stroke="none" /><text fill="#e1ed5e" style="font-size:6.75px; font-family:Arial;" text-anchor="middle"><textPath startOffset="22.20632615414155" xlink:href="#id3">March</textPath></text><line stroke="#e1ed5e" stroke-width="0.3" x1="184.98032266829074" x2="189.97916517819016" y1="98.17113171792111" y2="98.06355123074" /><path d="M 185.9800911702706 98.14961562048488 a86.0,86.0 0 0,1 -9.607161424134198,41.387399972396054" fill="none" id="id4" stroke="none" /><text fill="#e1ed5e" style="font-size:6.75px; font-family:Arial;" text-anchor="middle"><textPath startOffset="21.466115282336823" xlink:href="#id4">April</textPath></text><line stroke="#e1ed5e" stroke-width="0.3" x1="174.80103733775053" x2="179.2010983576182" y1="140.37084112569926" y2="142.7455964860345" /><path d="M 175.68104954172406 140.8457921977663 a86.0,86.0 0 0,1 -30.038265399797805,32.042727171017184" fill="none" id="id5" stroke="none" /><text fill="#e1ed5e" style="font-size:6.75px; font-family:Arial;" text-anchor="middle"><textPath startOffset="22.206326154141568" xlink:href="#id5">May</textPath></text><line stroke="#e1ed5e" stroke-width="0.3" x1="143.8653032363475" x2="146.44561519142675" y1="172.8068346515853" y2="177.08958963109032" /><path d="M 144.38136562736335 173.6633856474863 a86.0,86.0 0 0,1 -40.68145358897372,12.25698825130547" fill="none" id="id6" stroke="none" /><text fill="#e1ed5e" style="font-size:6.75px; font-family:Arial;" text-anchor="middle"><textPath startOffset="21.466115282336833" xlink:href="#id6">June</textPath></text><line stroke="#e1ed5e" stroke-width="0.3" x1="102.19456741930631" x2="102.32365962044197" y1="184.97166512339345" y2="189.96999836594603" /><path d="M 102.22038585953345 185.97133177190398 a86.0,86.0 0 0,1 -42.740103519485714,-10.115201625700543" fill="none" id="id7" stroke="none" /><text fill="#e1ed5e" style="font-size:6.75px; font-family:Arial;" text-anchor="middle"><textPath startOffset="22.20632615414155" xlink:href="#id7">July</textPath></text><line stroke="#e1ed5e" stroke-width="0.3" x1="58.666819895761336" x2="56.23545636021788" y1="174.27360380694188" y2="178.64263932499728" /><path d="M 58.180547188652646 175.14741091055294 a86.0,86.0 0 0,1 -31.652253787137756,-30.449443065178592" fill="none" id="id8" stroke="none" /><text fill="#e1ed5e" style="font-size:6.75px; font-family:Arial;" text-anchor="middle"><textPath startOffset="22.20632615414155" xlink:href="#id8">August</textPath></text><line stroke="#e1ed5e" stroke-width="0.3" x1="26.63291911575756" x2="22.317208475507996" y1="142.92168965132927" y2="145.44649492493687" /><path d="M 25.769776987707644 143.4266507060508 a86.0,86.0 0 0,1 -11.730757126820373,-40.83630448921669" fill="none" id="id9" stroke="none" /><text fill="#e1ed5e" style="font-size:6.75px; font-family:Arial;" text-anchor="middle"><textPath startOffset="21.46611528233685" xlink:href="#id9">September</textPath></text><path d="M 80.32549172779594 107.34259656027581 l -44.251417441476114 16.514786595818283 a68.23268065529624,68.23268065529624 0 0,0 -0.4011943175003444,-1.1039144556578566 l 44.52913601998168 -15.75062434315431" fill="red" stroke="none" /><path d="M 79.97269907076064 106.31721596034903 l -46.67684734134776 14.723288277604983 a69.9438790394973,69.9438790394973 0 0,0 -0.3522947537832595,-1.1513196390017333 l 46.92336886763715 -13.917641666051201" fill="red" stroke="none" /><path d="M 79.67330655649465 105.27499134158121 l -57.08397869898599 14.813894557767755 a79.97484290843806,79.97484290843806 0 0,0 -0.33432792135194933,-1.3354738550741023 l 57.330517934632994 -13.82909286329626" fill="red" stroke="none" /><path d="M 79.23777060512086 103.15116336523772 l -58.3853250337847 8.861365213474476 a80.05395814631956,80.05395814631956 0 0,0 -0.1950493684968526,-1.3641748289786644 l 58.52920845329815 -7.855044912515411" fill="red" stroke="none" /><path d="M 79.07016306316243 101.71520430193888 l -12.165878707133782 0.9969961810173289 a33.20666236535009,33.20666236535009 0 0,0 -0.04178258547447864,-0.5700901823805108 l 12.181237851272595 -0.7874328621400575" fill="red" stroke="none" /><path d="M 79.0235259727143 100.99374915477108 l -56.202627924044 2.662569215530793 a77.26566146768403,77.26566146768403 0 0,0 -0.05150259354232045,-1.3290530926972084 l 56.24013265043752 -1.694738875819588" fill="red" stroke="none" /><line stroke="#e1ed5e" stroke-width="0.3" x1="15.007084014347285" x2="10.007500721073583" y1="101.09737516637583" y2="101.16192664675087" /><path d="M 14.007167355692545 101.11028546245083 a86.0,86.0 0 0,1 10.666146001902534,-42.60595125391555" fill="none" id="id10" stroke="none" /><text fill="#e1ed5e" style="font-size:6.75px; font-family:Arial;" text-anchor="middle"><textPath startOffset="22.20632615414155" xlink:href="#id10">October</textPath></text><path d="M 79.16333360222342 97.38593545837743 l -61.981016274512754 -7.775830058603986 a83.46687051166965,83.46687051166965 0 0,0 0.19111528953918014,-1.424030892837876 l 61.83798498591574 8.841579293506522" fill="red" stroke="none" /><path d="M 79.71946130924805 94.55025226153421 l -52.53050931660457 -14.115898434155806 a75.39405296229802,75.39405296229802 0 0,0 0.3475781784462336,-1.2504236398191424 l 52.279744367591974 15.018033377393891" fill="red" stroke="none" /><path d="M 80.02781315780177 93.51064311812611 l -37.32083914316099 -12.126275717553021 a60.24145253590664,60.24145253590664 0 0,0 0.32892609404220857,-0.983447154682718 l 37.10657575534701 12.76689597515806" fill="red" stroke="none" /><path d="M 81.43458229118936 90.18545643968196 l -53.57176063149387 -28.320525105729562 a81.59691146768402,81.59691146768402 0 0,0 0.6671204203708926,-1.2360728209146155 l 53.07633211190451 29.23847890997665" fill="red" stroke="none" /><line stroke="#e1ed5e" stroke-width="0.3" x1="26.266209847984243" x2="21.928928074336255" y1="57.711370442889674" y2="55.22380399835377" /><path d="M 25.398753493254645 57.213857153982495 a86.0,86.0 0 0,1 29.58750427330803,-30.492523968695096" fill="none" id="id11" stroke="none" /><text fill="#e1ed5e" style="font-size:6.75px; font-family:Arial;" text-anchor="middle"><textPath startOffset="21.46611528233685" xlink:href="#id11">November</textPath></text><path d="M 84.07557802195018 86.31012108654704 l -47.391103035747804 -40.74109961596316 a83.49603063285458,83.49603063285458 0 0,0 0.9463206975987147,-1.0818081454286792 l 46.68279047457125 41.550823317594784" fill="red" stroke="none" /><path d="M 86.37877921826538 84.01681056812374 l -40.863662345203856 -47.94956829562878 a84.0,84.0 0 0,0 1.1085698521635585,-0.9283953704247505 l 40.03223495608118 48.64586482344734" fill="red" stroke="none" /><path d="M 89.00827224532344 82.1063720568725 l -27.393909024594066 -44.5950288193244 a73.33682114003591,73.33682114003591 0 0,0 1.0813267508555497,-0.6514872683428813 l 26.62222020752087 45.0599626971259" fill="red" stroke="none" /><line stroke="#e1ed5e" stroke-width="0.3" x1="56.762969772571076" x2="54.21961505331055" y1="26.818313649435495" y2="22.513508569990535" /><path d="M 56.25429882871897 25.957352633546506 a86.0,86.0 0 0,1 42.265352541879196,-11.944610805530505" fill="none" id="id12" stroke="none" /><text fill="#e1ed5e" style="font-size:6.75px; font-family:Arial;" text-anchor="middle"><textPath startOffset="22.20632615414155" xlink:href="#id12">December</textPath></text><path d="M 89.94658935756843 81.56283822128135 l -28.257591249019228 -51.82219247428079 a80.02568166517057,80.02568166517057 0 0,0 1.2150754763756482,-0.6490512387513071 l 27.361370726115275 52.30092243953385" fill="red" stroke="none" /><path d="M 90.91171255644093 81.06846463323043 l -12.78884290451071 -26.64004998195686 a50.550748990125676,50.550748990125676 0 0,0 0.7876812621282588,-0.369826914221837 l 12.328383431082843 26.856241878818707" fill="red" stroke="none" /></svg>